HIERARCHY
ROOT hip
{
	OFFSET 0.000000 0.000000 0.000000
	CHANNELS 6 Xposition Yposition Zposition Xrotation Zrotation Yrotation 
	JOINT abdomen
	{
		OFFSET 0.000000 3.422050 0.000000
		CHANNELS 3 Xrotation Zrotation Yrotation 
		JOINT chest
		{
			OFFSET 0.000000 8.486693 -0.684411
			CHANNELS 3 Xrotation Zrotation Yrotation 
			JOINT neck
			{
				OFFSET 0.000000 10.266162 -0.273764
				CHANNELS 3 Xrotation Zrotation Yrotation 
				JOINT head
				{
					OFFSET 0.000000 3.148285 0.000000
					CHANNELS 3 Xrotation Zrotation Yrotation 
					End Site
					{
						OFFSET 0.000000 3.148289 0.000000
					}
				}
			}
			JOINT lCollar
			{
				OFFSET 3.422053 6.707223 -0.821293
				CHANNELS 3 Yrotation Zrotation Xrotation 
				JOINT lShldr
				{
					OFFSET 3.285171 0.000000 0.000000
					CHANNELS 3 Zrotation Yrotation Xrotation 
					JOINT lForeArm
					{
						OFFSET 10.129278 0.000000 0.000000
						CHANNELS 3 Yrotation Zrotation Xrotation 
						JOINT lHand
						{
							OFFSET 8.486692 0.000000 0.000000
							CHANNELS 3 Zrotation Yrotation Xrotation 
							End Site
							{
								OFFSET 4.106464 0.000000 0.000000
							}
						}
					}
				}
			}
			JOINT rCollar
			{
				OFFSET -3.558935 6.707223 -0.821293
				CHANNELS 3 Yrotation Zrotation Xrotation 
				JOINT rShldr
				{
					OFFSET -3.148289 0.000000 0.000000
					CHANNELS 3 Zrotation Yrotation Xrotation 
					JOINT rForeArm
					{
						OFFSET -10.266159 0.000000 0.000000
						CHANNELS 3 Yrotation Zrotation Xrotation 
						JOINT rHand
						{
							OFFSET -8.349810 0.000000 0.000000
							CHANNELS 3 Zrotation Yrotation Xrotation 
							End Site
							{
								OFFSET -4.106464 0.000000 0.000000
							}
						}
					}
				}
			}
		}
	}
	JOINT lThigh
	{
		OFFSET 5.338403 -1.642589 1.368821
		CHANNELS 3 Xrotation Zrotation Yrotation 
		JOINT lShin
		{
			OFFSET -2.053232 -20.121670 0.000000
			CHANNELS 3 Xrotation Zrotation Yrotation 
			JOINT lFoot
			{
				OFFSET 0.000000 -19.300380 -1.231939
				CHANNELS 3 Xrotation Yrotation Zrotation 
				End Site
				{
					OFFSET 0.000000 -2.463878 4.653993
				}
			}
		}
	}
	JOINT rThigh
	{
		OFFSET -5.338403 -1.642589 1.368821
		CHANNELS 3 Xrotation Zrotation Yrotation 
		JOINT rShin
		{
			OFFSET 2.053232 -20.121670 0.000000
			CHANNELS 3 Xrotation Zrotation Yrotation 
			JOINT rFoot
			{
				OFFSET 0.000000 -19.300380 -1.231939
				CHANNELS 3 Xrotation Yrotation Zrotation 
				End Site
				{
					OFFSET 0.000000 -2.463878 4.653993
				}
			}
		}
	}
}
MOTION
Frames: 6
Frame Time: 0.024994
0.000000 43.528500 0.000000 0.000000 0.000000 0.000000 0.000000 0.000000 0.000000 0.000000 0.000000 0.000000 0.000000 0.000000 0.000000 0.000000 0.000000 0.000000 0.000000 0.000000 0.000000 0.000000 0.000000 0.000000 0.000000 0.000000 0.000000 0.000000 0.000000 0.000000 0.000000 0.000000 0.000000 0.000000 0.000000 0.000000 0.000000 0.000000 0.000000 0.000000 0.000000 0.000000 0.000000 0.000000 0.000000 0.000000 0.000000 0.000000 0.000000 0.000000 0.000000 0.000000 0.000000 0.000000 0.000000 0.000000 0.000000 0.000000 0.000000 0.000000 
-0.135168 4.236591 24.050943 -90.001862 -0.269606 179.747711 -44.689636 0.081497 -0.137475 16.365387 0.709107 0.117866 -10.012717 0.000000 0.000000 21.997025 0.000000 0.000000 11.685460 -3.188869 -37.751465 -56.427170 -39.441620 1.905969 -114.106766 -4.013106 52.631702 -29.009275 17.896172 -67.898361 -43.346008 -8.150579 -12.063704 65.131172 45.446529 13.760793 129.898331 14.911025 -9.621692 -32.460247 -28.876486 -17.379404 -2.024504 7.965353 0.001026 75.435486 3.190753 -2.156132 47.619408 5.779889 6.297430 -1.731232 -5.382808 -0.224987 106.709221 -4.665254 -1.175774 23.064539 0.944105 -3.746428 
-0.135168 4.236591 24.050943 -90.001862 -0.269606 179.747711 -45.381542 0.081491 -0.137458 17.821672 0.709128 0.117863 -7.575959 0.000000 0.000000 20.922087 0.000000 0.000000 11.856539 -2.987233 -38.510063 -56.427170 -39.441616 1.905967 -114.106766 -4.013106 52.631702 -28.837919 18.003847 -68.214134 -43.439098 -7.764326 -12.899215 65.131172 45.446526 13.760794 129.898331 14.911025 -9.621692 -32.561028 -29.104727 -17.538292 -2.024504 7.965352 0.001026 75.435471 3.190753 -2.156132 47.619404 5.779888 6.297430 -1.731232 -5.382808 -0.224987 106.709229 -4.665253 -1.175774 23.064539 0.944105 -3.746428 
-0.135168 4.236591 24.050943 -90.001862 -0.269606 179.747711 -46.073730 0.081485 -0.137440 19.280571 0.709150 0.117861 -5.126812 0.000000 0.000000 19.846106 0.000000 0.000000 12.030346 -2.787768 -39.269543 -56.427162 -39.441616 1.905971 -114.106766 -4.013106 52.631702 -28.667051 18.112434 -68.529800 -43.526478 -7.376498 -13.733925 65.131172 45.446529 13.760791 129.898331 14.911025 -9.621692 -32.661320 -29.333235 -17.697083 -2.024504 7.965353 0.001026 75.435486 3.190753 -2.156132 47.619408 5.779888 6.297430 -1.731232 -5.382807 -0.224987 106.709221 -4.665254 -1.175774 23.064539 0.944105 -3.746428 
-0.135168 4.236591 24.050943 -90.001862 -0.269606 179.747711 -46.766155 0.081479 -0.137423 20.741602 0.709171 0.117860 -2.667439 0.000000 0.000000 18.769270 0.000000 0.000000 12.206831 -2.590532 -40.029839 -56.427170 -39.441620 1.905969 -114.106773 -4.013105 52.631706 -28.496693 18.221924 -68.845352 -43.608128 -6.987228 -14.567806 65.131172 45.446529 13.760793 129.898331 14.911025 -9.621692 -32.761108 -29.561995 -17.855785 -2.024504 7.965353 0.001026 75.435486 3.190753 -2.156132 47.619411 5.779889 6.297430 -1.731232 -5.382808 -0.224987 106.709221 -4.665254 -1.175774 23.064541 0.944105 -3.746428 
-0.135168 4.236591 24.050943 -90.001862 -0.269606 179.747711 -47.458755 0.081474 -0.137405 22.204308 0.709192 0.117859 -0.200051 0.000000 0.000000 17.691763 0.000000 0.000000 12.385961 -2.395587 -40.790905 -56.427170 -39.441624 1.905966 -114.106766 -4.013106 52.631702 -28.326851 18.332319 -69.160812 -43.684048 -6.596646 -15.400826 65.131172 45.446529 13.760793 129.898331 14.911025 -9.621692 -32.860405 -29.791012 -18.014397 -2.024504 7.965353 0.001026 75.435486 3.190753 -2.156132 47.619408 5.779889 6.297430 -1.731232 -5.382808 -0.224987 106.709221 -4.665254 -1.175774 23.064539 0.944105 -3.746428 
